<?xml version="1.0" encoding="iso-8859-1"?>
<!-- Generator: Adobe Illustrator 19.0.0, SVG Export Plug-In . SVG Version: 6.00 Build 0)  -->
<svg version="1.1" id="Capa_1" xmlns="http://www.w3.org/2000/svg" xmlns:xlink="http://www.w3.org/1999/xlink" x="0px" y="0px"
	 viewBox="0 0 512 512" style="enable-background:new 0 0 512 512;" xml:space="preserve">
<path style="fill:#6D737F;" d="M75,271c-8.284,0-15-6.716-15-15c0-8.284,6.716-15,15-15c45.301,0,88.266-17.243,120.98-48.553
	c32.613-31.213,51.729-73.171,53.827-118.146c0.386-8.275,7.402-14.658,15.683-14.285c8.274,0.386,14.671,7.407,14.284,15.683
	c-2.458,52.702-24.85,101.86-63.051,138.421C178.399,250.8,128.067,271,75,271z"/>
<path style="fill:#5E5F69;" d="M216.724,214.12c38.201-36.561,60.593-85.72,63.051-138.421c0.387-8.275-6.01-15.296-14.284-15.683
	c-8.28-0.373-15.297,6.01-15.683,14.285c-2.098,44.975-21.214,86.933-53.827,118.146c-0.603,0.577-1.217,1.139-1.827,1.707
	l21.224,21.224C215.825,214.957,216.279,214.545,216.724,214.12z"/>
<path style="fill:#FFF35D;" d="M75,306.089H15c-8.284,0-15-6.716-15-15v-60c0-8.284,6.716-15,15-15h60c8.284,0,15,6.716,15,15v60
	C90,299.373,83.284,306.089,75,306.089z"/>
<path style="fill:#59C9FF;" d="M331.748,512c-5.943,0-11.362-3.522-13.753-9.022L191.016,210.751
	c-2.455-5.651-1.205-12.228,3.151-16.584c4.357-4.356,10.936-5.606,16.584-3.151l292.227,126.979
	c5.763,2.504,9.354,8.333,8.998,14.605c-0.354,6.272-4.581,11.659-10.589,13.497l-89.03,27.229
	c-18.715,5.724-33.306,20.315-39.03,39.031l-27.229,89.03c-1.837,6.007-7.224,10.234-13.496,10.589
	C332.316,511.992,332.031,512,331.748,512z"/>
<path style="fill:#FFDC4C;" d="M235,90h60c8.284,0,15-6.716,15-15V15c0-8.284-6.716-15-15-15h-60c-8.284,0-15,6.716-15,15v60
	C220,83.284,226.716,90,235,90z"/>
<path style="fill:#4BA9EF;" d="M412.357,373.326l89.03-27.229c6.008-1.837,10.234-7.224,10.589-13.497
	c0.355-6.272-3.235-12.101-8.998-14.605L210.751,191.016c-5.648-2.455-12.227-1.205-16.584,3.151L387.97,387.97
	C394.672,381.267,402.999,376.188,412.357,373.326z"/>
<g>
</g>
<g>
</g>
<g>
</g>
<g>
</g>
<g>
</g>
<g>
</g>
<g>
</g>
<g>
</g>
<g>
</g>
<g>
</g>
<g>
</g>
<g>
</g>
<g>
</g>
<g>
</g>
<g>
</g>
</svg>
